            <svg width="26" height="26" viewBox="0 0 26 26" fill="none" xmlns="http://www.w3.org/2000/svg">
                <g id="work_history">
                    <g id="Vector">
                        <path d="M4.14583 19.7708V8.3125H20.8125V11.7396C21.5625 11.9688 22.2708 12.3021 22.8958 12.75V8.3125C22.8958 7.15625 21.9688 6.22917 20.8125 6.22917H16.6458V4.14583C16.6458 2.98958 15.7187 2.0625 14.5625 2.0625H10.3958C9.23958 2.0625 8.3125 2.98958 8.3125 4.14583V6.22917H4.14583C2.98958 6.22917 2.07292 7.15625 2.07292 8.3125L2.0625 19.7708C2.0625 20.9271 2.98958 21.8542 4.14583 21.8542H12.1458C11.8333 21.2083 11.625 20.5104 11.5208 19.7708H4.14583ZM10.3958 4.14583H14.5625V6.22917H10.3958V4.14583Z" fill="currentColor"/>
                        <path d="M18.7292 13.5208C15.8542 13.5208 13.5208 15.8542 13.5208 18.7292C13.5208 21.6042 15.8542 23.9375 18.7292 23.9375C21.6042 23.9375 23.9375 21.6042 23.9375 18.7292C23.9375 15.8542 21.6042 13.5208 18.7292 13.5208ZM20.4479 21.1771L18.2083 18.9375V15.6042H19.25V18.5104L21.1771 20.4375L20.4479 21.1771Z" fill="currentColor"/>
                    </g>
                </g>
            </svg>
