<svg xmlns="http://www.w3.org/2000/svg" width="25" height="29" viewBox="0 0 25 29" fill="none">
  <g clip-path="url(#clip0_201_445)">
    <path fill-rule="evenodd" clip-rule="evenodd" d="M1.04167 0.1875H3.69318L8.52275 4.82765H8.99619V4.54356H16.0038V4.82765H16.3826L21.3068 0.1875H23.8636L25 1.70265V5.96401L23.2008 9.75188V12.7822L22.4432 14.2974V17.8011L18.8447 23.0095V24.8087L15.7197 27.2708L14.678 28.786H10.322L9.28031 27.2708L6.1553 24.8087V23.0095L2.55682 17.8011V14.2974L1.79924 12.7822V9.75188L0 5.96401V1.70265L1.04167 0.1875ZM15.5303 18.1799V14.0133L18.0871 12.3087L19.7917 13.6345V15.1496L15.5303 18.1799ZM6.91288 12.3087L5.20833 13.6345V15.1496L9.46969 18.1799V14.0133L6.91288 12.3087ZM12.0265 24.9034L10.1326 23.2936H14.8674L12.9735 24.9034V26.1345H12.0265V24.9034Z" fill="currentColor"/>
  </g>
  <defs>
    <clipPath id="clip0_201_445">
      <rect width="25" height="28.625" fill="white" transform="translate(0 0.1875)"/>
    </clipPath>
  </defs>
</svg>
