<svg xmlns="http://www.w3.org/2000/svg">
  <g clip-path="url(#clip0_128_676)">
    <path d="M6.66667 20.5417C8.3625 20.5417 9.75 19.1542 9.75 17.4583C9.75 15.7625 8.3625 14.375 6.66667 14.375C4.97083 14.375 3.58333 15.7625 3.58333 17.4583C3.58333 19.1542 4.97083 20.5417 6.66667 20.5417ZM8.40875 22.2375C7.83833 22.145 7.26792 22.0833 6.66667 22.0833C5.14042 22.0833 3.69125 22.4071 2.38083 22.9775C1.24 23.4708 0.5 24.5808 0.5 25.8296V28.25H7.4375V25.7679C7.4375 24.4883 7.79208 23.2858 8.40875 22.2375ZM31.3333 20.5417C33.0292 20.5417 34.4167 19.1542 34.4167 17.4583C34.4167 15.7625 33.0292 14.375 31.3333 14.375C29.6375 14.375 28.25 15.7625 28.25 17.4583C28.25 19.1542 29.6375 20.5417 31.3333 20.5417ZM37.5 25.8296C37.5 24.5808 36.76 23.4708 35.6192 22.9775C34.3088 22.4071 32.8596 22.0833 31.3333 22.0833C30.7321 22.0833 30.1617 22.145 29.5913 22.2375C30.2079 23.2858 30.5625 24.4883 30.5625 25.7679V28.25H37.5V25.8296ZM25.5367 21.5437C23.7329 20.7421 21.5129 20.1562 19 20.1562C16.4871 20.1562 14.2671 20.7575 12.4633 21.5437C10.7983 22.2837 9.75 23.9487 9.75 25.7679V28.25H28.25V25.7679C28.25 23.9487 27.2017 22.2837 25.5367 21.5437ZM12.9412 25.1667C13.08 24.8121 13.1417 24.5654 14.3442 24.1029C15.8396 23.5171 17.4121 23.2396 19 23.2396C20.5879 23.2396 22.1604 23.5171 23.6558 24.1029C24.8429 24.5654 24.9046 24.8121 25.0588 25.1667H12.9412ZM19 12.8333C19.8479 12.8333 20.5417 13.5271 20.5417 14.375C20.5417 15.2229 19.8479 15.9167 19 15.9167C18.1521 15.9167 17.4583 15.2229 17.4583 14.375C17.4583 13.5271 18.1521 12.8333 19 12.8333ZM19 9.75C16.4408 9.75 14.375 11.8158 14.375 14.375C14.375 16.9342 16.4408 19 19 19C21.5592 19 23.625 16.9342 23.625 14.375C23.625 11.8158 21.5592 9.75 19 9.75Z" fill="currentColor"/>
  </g>
  <defs>
    <clipPath id="clip0_128_676">
      <rect width="37" height="37" fill="white" transform="translate(0.5 0.5)"/>
    </clipPath>
  </defs>
</svg>
