<svg xmlns="http://www.w3.org/2000/svg" width="38" height="37" viewBox="0 0 38 37" fill="none">
  <path fill-rule="evenodd" clip-rule="evenodd" d="M34.6291 9.46177C34.8912 9.92133 35.0208 10.4568 35.021 11.0628C35.0226 16.013 35.0226 25.9105 35.0226 25.9105C35.0224 26.5033 34.8981 27.0283 34.6479 27.481C34.3903 27.9462 33.9994 28.3356 33.4703 28.6418C31.6763 29.676 29.8817 30.7089 28.0871 31.7418L28.0842 31.7435L28.082 31.7448C25.6074 33.1691 23.1328 34.5933 20.6601 36.021C19.5092 36.6855 18.3938 36.6614 17.2513 35.9873C16.2253 35.3819 12.7153 33.3644 9.53765 31.5378C7.4541 30.3402 5.51342 29.2247 4.50949 28.6433C3.98042 28.337 3.58948 27.9478 3.33191 27.4823C3.08136 27.0296 2.95728 26.5045 2.95703 25.9119C2.95785 23.4368 2.95785 20.9617 2.95785 18.4867C2.95785 16.0117 2.95785 13.5367 2.95866 11.0616C2.95891 9.85948 3.46691 8.93458 4.51087 8.33023C5.51805 7.74686 7.46797 6.62589 9.55908 5.42375L9.55932 5.42361C12.7312 3.60016 16.2278 1.59002 17.2518 0.986114C18.3938 0.312388 19.5092 0.288174 20.6597 0.952365C23.0979 2.3601 25.5378 3.76457 27.9778 5.16903L27.9787 5.16957C29.809 6.22312 31.6394 7.27668 33.4689 8.33161C33.9861 8.63109 34.3716 9.00986 34.6291 9.46177ZM32.943 19.0849H34.1627V17.8653H32.943V16.6455H31.723V17.8653H30.5034V19.0849H31.723V20.3049H32.943V19.0849ZM29.712 19.0849H28.4924V20.3049H27.2727V19.0849H26.0529V17.8653H27.2727V16.6455H28.4924V17.8653H29.712V19.0849ZM18.9898 23.7892C20.973 23.7892 22.701 22.6993 23.6103 21.0866L28.2381 23.7679C26.4032 26.974 22.9488 29.1352 18.9898 29.1352C15.0382 29.1352 11.5891 26.9827 9.75163 23.7859C8.85458 22.2253 8.34132 20.416 8.34132 18.4867C8.34132 12.6058 13.1087 7.8383 18.9898 7.8383C22.9291 7.8383 26.3683 9.97766 28.2105 13.1576L23.5758 15.8264C22.6573 14.2471 20.9482 13.1843 18.9898 13.1843C16.0614 13.1843 13.6873 15.5583 13.6873 18.4867C13.6873 19.4443 13.9427 20.342 14.3867 21.1174C15.3007 22.713 17.0188 23.7892 18.9898 23.7892Z" fill="currentColor"/>
    </svg> 
