<svg xmlns="http://www.w3.org/2000/svg" width="25" height="25" viewBox="0 0 25 25" fill="none">
  <path d="M17.7085 7.2915H13.5418V9.37484H17.7085C19.4272 9.37484 20.8335 10.7811 20.8335 12.4998C20.8335 14.2186 19.4272 15.6248 17.7085 15.6248H13.5418V17.7082H17.7085C20.5835 17.7082 22.9168 15.3748 22.9168 12.4998C22.9168 9.62484 20.5835 7.2915 17.7085 7.2915ZM11.4585 15.6248H7.29183C5.57308 15.6248 4.16683 14.2186 4.16683 12.4998C4.16683 10.7811 5.57308 9.37484 7.29183 9.37484H11.4585V7.2915H7.29183C4.41683 7.2915 2.0835 9.62484 2.0835 12.4998C2.0835 15.3748 4.41683 17.7082 7.29183 17.7082H11.4585V15.6248ZM8.3335 11.4582H16.6668V13.5415H8.3335V11.4582Z" fill="currentColor"/>
</svg>
