<svg xmlns="http://www.w3.org/2000/svg" width="38" height="37" viewBox="0 0 38 37" fill="none">
        <g clip-path="url(#clip0_142_278)">
            <path fill-rule="evenodd" clip-rule="evenodd" d="M12.8815 0C9.47751 0 6.71484 2.76267 6.71484 6.16667C6.71484 9.57067 9.47751 12.3333 12.8815 12.3333C9.47751 12.3333 6.71484 15.096 6.71484 18.5C6.71484 21.904 9.47751 24.6667 12.8815 24.6667C9.47751 24.6667 6.71484 27.4293 6.71484 30.8333C6.71484 34.2373 9.47751 37 12.8815 37C16.2855 37 19.0482 34.2373 19.0482 30.8333L19.0482 18.5C19.0482 21.904 21.8108 24.6667 25.2148 24.6667C28.6188 24.6667 31.3815 21.904 31.3815 18.5C31.3815 15.096 28.6188 12.3333 25.2148 12.3333C28.6188 12.3333 31.3815 9.57067 31.3815 6.16667C31.3815 2.76267 28.6188 0 25.2148 0H12.8815ZM25.2148 12.3333H19.0482L19.0482 18.5C19.0482 15.096 21.8108 12.3333 25.2148 12.3333Z" fill="currentColor"/>
        </g>
        <defs>
            <clipPath id="clip0_142_278">
                <rect width="37" height="37" fill="white" transform="translate(0.5)"/>
            </clipPath>
        </defs>
    </svg> 
