<svg xmlns="http://www.w3.org/2000/svg" width="38" height="37" viewBox="0 0 38 37" fill="none">
        <g clip-path="url(#clip0_142_248)">
            <path fill-rule="evenodd" clip-rule="evenodd" d="M36.8035 16.8514L20.6487 0.697862C19.719 -0.232621 18.2101 -0.232621 17.2792 0.697862L13.9246 4.05239L18.18 8.30777C19.169 7.97366 20.3028 8.19775 21.0912 8.98615C21.8833 9.77941 22.1057 10.923 21.7635 11.9152L25.8646 16.0163C26.8568 15.6745 28.0016 15.8958 28.7941 16.6894C29.9016 17.7965 29.9016 19.5909 28.7941 20.6988C27.6862 21.8067 25.8918 21.8067 24.7835 20.6988C23.9505 19.8649 23.7446 18.6413 24.1664 17.615L20.3418 13.7904L20.3414 23.8552C20.6114 23.9892 20.8663 24.1674 21.0912 24.3915C22.1987 25.4986 22.1987 27.293 21.0912 28.4017C19.9833 29.5091 18.1881 29.5091 17.0819 28.4017C15.9744 27.293 15.9744 25.4986 17.0819 24.3915C17.3555 24.1183 17.6721 23.9116 18.0099 23.7728V13.6142C17.6721 13.4762 17.3559 13.2708 17.0819 12.9955C16.2427 12.1576 16.041 10.9263 16.4709 9.89592L12.2764 5.70063L1.19951 16.7767C0.26862 17.708 0.26862 19.217 1.19951 20.1475L17.3543 36.3014C18.2843 37.2319 19.7929 37.2319 20.7242 36.3014L36.8035 20.2226C37.734 19.2917 37.734 17.7819 36.8035 16.8514Z" fill="currentColor"/>
        </g>
        <defs>
            <clipPath id="clip0_142_248">
                <rect width="37" height="37" fill="white" transform="translate(0.5)"/>
            </clipPath>
        </defs>
    </svg> 
