<svg xmlns="http://www.w3.org/2000/svg" width="38" height="37" viewBox="0 0 38 37" fill="none">
        <g clip-path="url(#clip0_129_898)">
            <path fill-rule="evenodd" clip-rule="evenodd" d="M0.5 0H37.5V37H0.5V0ZM10.2287 30.9199C11.0483 32.6583 12.6629 34.0987 15.4443 34.0987C18.5242 34.0987 20.6352 32.4595 20.6352 28.8581V16.9866H17.1581V28.809C17.1581 30.5474 16.4378 30.9943 15.2952 30.9943C14.1033 30.9943 13.6064 30.1749 13.0601 29.2063L10.2287 30.9199ZM25.355 28.9081L22.5239 30.5473C23.542 32.5592 25.6283 34.099 28.8571 34.099C32.1603 34.099 34.6191 32.3854 34.6191 29.2558C34.6191 26.35 32.955 25.0586 29.9994 23.7919L29.1302 23.4194C27.6401 22.7736 26.9943 22.3512 26.9943 21.3081C26.9943 20.4638 27.6401 19.818 28.6585 19.818C29.6519 19.818 30.2975 20.2402 30.8936 21.3081L33.6008 19.5696C32.4584 17.5578 30.8689 16.7878 28.6584 16.7878C25.5537 16.7878 23.5668 18.7748 23.5668 21.3827C23.5668 24.2141 25.2309 25.5553 27.7396 26.623L28.6086 26.9958C30.1982 27.691 31.1419 28.1133 31.1419 29.3055C31.1419 30.2989 30.2232 31.0193 28.7825 31.0193C27.0689 31.0193 26.1002 30.1252 25.355 28.9081Z" fill="currentColor"/>
        </g>
        <defs>
            <clipPath id="clip0_129_898">
                <rect width="37" height="37" fill="white" transform="translate(0.5)"/>
            </clipPath>
        </defs>
    </svg> 
