<svg xmlns="http://www.w3.org/2000/svg" width="38" height="37" viewBox="0 0 38 37" fill="none">
  <g clip-path="url(#clip0_142_400)">
    <path d="M30.1989 29.2958C31.5075 28.7423 33.0678 28.5408 35.081 28.591C35.0243 28.2144 34.3049 27.767 33.7779 27.4392C33.601 27.3292 33.4457 27.2326 33.3445 27.1568C32.5392 26.578 31.6835 25.9738 30.828 25.4456C30.5524 25.2772 30.1556 25.1367 29.7738 25.0015C29.5281 24.9145 29.2886 24.8296 29.0916 24.741C28.8903 24.659 28.6161 24.5769 28.3201 24.4884C27.6169 24.278 26.7905 24.0307 26.5248 23.659C25.8405 22.7694 25.363 21.6937 24.8861 20.6195C24.8369 20.5085 24.7876 20.3976 24.7381 20.2868C24.4885 19.7162 24.2108 19.1344 23.9316 18.5493C23.6197 17.8958 23.3058 17.2382 23.027 16.5876C22.9055 16.3226 22.8131 16.072 22.7221 15.8254C22.6058 15.51 22.4919 15.2011 22.3224 14.8764C20.4852 11.3282 17.7676 8.35866 14.471 6.27003C13.3887 5.59055 12.181 4.96127 10.8472 4.53359C10.4398 4.41145 9.9886 4.39179 9.53291 4.37193C9.144 4.35499 8.75186 4.3379 8.38105 4.25685H7.8525C7.54738 4.17209 7.27651 3.92742 7.02453 3.69982C6.90246 3.58956 6.78483 3.48331 6.66988 3.40118C5.88968 2.87279 5.10963 2.52025 4.17851 2.14294C3.8514 1.99202 2.92028 1.63965 2.59317 1.91656C2.39172 1.96692 2.29116 2.04238 2.2408 2.24367C2.03951 2.54568 2.21585 2.99861 2.34152 3.27536C2.59095 3.8075 2.90635 4.19681 3.22956 4.59574C3.39547 4.80053 3.56343 5.00785 3.72558 5.23834C3.80303 5.34765 3.88378 5.45944 3.96588 5.5731C4.3373 6.08733 4.73648 6.63998 4.98382 7.1759C5.33284 7.92776 5.58161 8.72257 5.82948 9.51447C6.04623 10.207 6.26228 10.8972 6.54407 11.5546C6.77045 12.0832 7.12282 12.687 7.44993 13.1652C7.55252 13.3052 7.68627 13.4313 7.82167 13.5589C8.0515 13.7756 8.28608 13.9967 8.38106 14.2976C8.62579 14.7055 8.17649 15.8734 7.9035 16.583C7.8396 16.7491 7.78536 16.8901 7.75194 16.9903C7.09756 19.0537 7.22339 21.9225 7.97833 23.7092C8.00531 23.7721 8.03209 23.8361 8.05907 23.9005C8.33404 24.5572 8.62918 25.2621 9.36239 25.4456C9.3852 25.4228 9.38738 25.4155 9.39228 25.412C9.3982 25.4078 9.40809 25.4091 9.46312 25.3952C9.49994 25.106 9.53127 24.8189 9.56216 24.5359C9.67909 23.4647 9.7897 22.4513 10.1677 21.5954C10.3478 21.1535 10.6449 20.7967 10.9345 20.4489C11.0902 20.262 11.2436 20.0777 11.3756 19.8843C11.5353 19.98 11.5936 20.1974 11.6536 20.4207C11.6881 20.5492 11.7231 20.6797 11.7783 20.7901C11.8021 20.8468 11.826 20.9038 11.85 20.9612C12.1569 21.694 12.487 22.4825 12.8604 23.2059C13.6908 24.8165 14.622 26.3766 15.6788 27.7859C16.031 28.2892 16.5345 28.8428 16.9874 29.2958C17.0563 29.3561 17.1281 29.4075 17.1989 29.4582C17.3348 29.5555 17.4668 29.65 17.5662 29.7991H17.6166V29.8747C17.1388 29.6994 16.7719 29.3226 16.4138 28.9548C16.206 28.7414 16.0012 28.531 15.7794 28.3648C14.647 27.5091 13.2882 26.2256 12.508 24.9927C12.2623 24.4634 12.0024 23.9483 11.7389 23.426C11.6516 23.2531 11.564 23.0793 11.4763 22.904C11.4763 22.904 11.4764 22.8788 11.4763 22.8537C11.3801 22.9819 11.3657 23.1101 11.3483 23.2644C11.3384 23.3523 11.3275 23.4486 11.3001 23.5582C11.2068 23.917 11.1606 24.2901 11.116 24.6507C11.004 25.5547 10.9017 26.3801 10.0922 26.7038C8.80889 27.2324 7.85251 25.848 7.44993 25.2191C6.1666 23.1304 5.81423 19.6073 6.72009 16.7638C6.79018 16.5449 6.83893 16.3108 6.88755 16.0774C6.97869 15.6398 7.06933 15.2046 7.29901 14.8764C7.24852 14.574 7.07472 14.4173 6.90487 14.2642C6.82034 14.188 6.73678 14.1127 6.66989 14.0207C6.31752 13.5427 6.01567 12.9891 5.73876 12.4607C5.33641 11.6752 5.02169 10.7729 4.71669 9.89857C4.62103 9.62432 4.52632 9.35282 4.43017 9.08851C4.34427 8.86768 4.28832 8.64678 4.23311 8.42882C4.17508 8.19973 4.11788 7.97389 4.02759 7.75481C3.78971 7.23937 3.39579 6.72403 3.03008 6.24559C2.9315 6.11662 2.83497 5.99033 2.7441 5.86745C2.64606 5.72677 2.51626 5.5637 2.37157 5.38193C1.66202 4.49059 0.594369 3.14938 1.15876 1.79074C2.2157 -0.801204 5.91512 1.16146 7.34922 2.06748C7.49263 2.15969 7.64438 2.29355 7.80107 2.43176C8.02938 2.63314 8.26816 2.84377 8.50689 2.94825C8.82152 2.96088 9.13618 2.97975 9.45082 2.99862C9.76534 3.01749 10.0798 3.03635 10.3943 3.04897C10.4973 3.07308 10.5997 3.0968 10.7015 3.12038C11.7686 3.36748 12.7653 3.59829 13.6153 4.08066C17.9437 6.6224 20.7622 9.21434 23.3541 13.4923C23.706 14.0681 23.9461 14.6743 24.1906 15.2918C24.3308 15.6458 24.4724 16.0035 24.6374 16.3612C25.2665 17.8207 25.9714 19.3555 26.701 20.7398C26.7927 20.9232 26.8785 21.1127 26.9644 21.3025C27.185 21.7895 27.4068 22.2791 27.7328 22.6775C27.85 22.845 28.1122 22.9343 28.3635 23.02C28.4897 23.063 28.6132 23.1051 28.7141 23.1557C29.0396 23.3233 29.3922 23.4755 29.7475 23.6289C30.2988 23.8669 30.8569 24.1079 31.3313 24.4139C32.7909 25.3198 34.2002 26.4017 35.4835 27.5091C35.743 27.7413 35.958 28.0252 36.1727 28.3087C36.3538 28.5478 36.5346 28.7866 36.7418 28.9939V29.2203C36.3392 29.3461 35.9365 29.472 35.5339 29.5727C35.0958 29.6853 34.6827 29.7294 34.2728 29.7732C33.8585 29.8175 33.4475 29.8614 33.0174 29.9753C32.9632 29.9908 32.9076 30.0068 32.851 30.0231C32.3557 30.1661 31.7778 30.3328 31.281 30.378C31.3061 30.4031 31.3313 30.4282 31.3313 30.4282C31.5739 31.1186 32.6052 31.7122 33.4505 32.1987C33.7451 32.3682 34.0172 32.5248 34.2253 32.6679C35.2068 33.3725 36.1126 34.2282 36.8425 35.2095C36.9679 35.3349 37.0934 35.4542 37.2189 35.5734C37.3451 35.6933 37.4713 35.8131 37.5974 35.9393C37.6827 36.0612 37.7384 36.2007 37.7933 36.3379C37.8517 36.4841 37.9091 36.6278 38 36.7446V36.8201C37.7798 36.7415 37.6285 36.5842 37.4784 36.4282C37.3883 36.3345 37.2986 36.2413 37.1947 36.1659C36.9577 36.0043 36.7207 35.8288 36.4837 35.6533C36.1672 35.4189 35.8506 35.1844 35.5339 34.9831C35.047 34.6755 34.5209 34.4333 33.9921 34.1898C33.4826 33.9551 32.9706 33.7193 32.4889 33.4229C31.9354 33.0705 31.4068 32.6679 30.8784 32.2653C30.4002 31.913 29.872 31.2333 29.5698 30.7302C29.4936 30.6106 29.4457 30.4816 29.3996 30.3573C29.339 30.1942 29.2814 30.0393 29.1671 29.9249C29.2047 29.5674 29.552 29.4772 29.8827 29.3913C29.9942 29.3623 30.1037 29.3338 30.1989 29.2958Z" fill="currentColor"/>
    <path d="M8.38094 6.84878C8.68295 6.77332 8.9848 6.7228 9.41263 6.7228C9.49239 6.80262 9.59192 6.87054 9.69243 6.93912C9.84558 7.04363 10.001 7.14968 10.0921 7.30171C10.148 7.37999 10.184 7.45827 10.2201 7.53654C10.2651 7.63445 10.3102 7.73236 10.3941 7.83027C10.3941 8.43413 10.2181 8.8367 9.86557 9.08851C9.86557 9.08851 9.84046 9.11361 9.81536 9.13887C9.71479 8.9378 9.62055 8.73673 9.52632 8.53568C9.43181 8.33404 9.33732 8.13241 9.23645 7.93083C9.13846 7.79368 9.02524 7.66795 8.91162 7.54177C8.73346 7.34391 8.55431 7.14495 8.4313 6.89914H8.38094V6.84878Z" fill="currentColor"/>
  </g>
  <defs>
    <clipPath id="clip0_142_400">
      <rect width="37" height="37" fill="white" transform="translate(0.5)"/>
    </clipPath>
  </defs>
    </svg> 
