<svg xmlns="http://www.w3.org/2000/svg" width="38" height="37" viewBox="0 0 38 37" fill="none">
  <path fill-rule="evenodd" clip-rule="evenodd" d="M19.0328 36.4994C18.5358 36.4994 18.0719 36.3668 17.6412 36.1349L13.2344 33.5174C12.5717 33.1529 12.9031 33.0203 13.1019 32.9541C13.9965 32.6559 14.1621 32.5896 15.0899 32.0595C15.1893 31.9932 15.3218 32.0263 15.4212 32.0926L18.8008 34.1138C18.9334 34.18 19.099 34.18 19.1984 34.1138L32.4187 26.4599C32.5512 26.3937 32.6175 26.2611 32.6175 26.0955V10.8209C32.6175 10.6553 32.5512 10.5227 32.4187 10.4565L19.1984 2.83577C19.0659 2.7695 18.9002 2.7695 18.8008 2.83577L5.58057 10.4565C5.44804 10.5227 5.38177 10.6884 5.38177 10.8209V26.0955C5.38177 26.228 5.44804 26.3937 5.58057 26.4599L9.19212 28.5473C11.147 29.5413 12.3729 28.3817 12.3729 27.222V12.1463C12.3729 11.9475 12.5386 11.7487 12.7705 11.7487H14.4603C14.6591 11.7487 14.8579 11.9143 14.8579 12.1463V27.222C14.8579 29.8395 13.4332 31.3637 10.9482 31.3637C10.1861 31.3637 9.58972 31.3637 7.89992 30.5353L4.4209 28.5473C3.55943 28.0503 3.0293 27.1226 3.0293 26.1286V10.8541C3.0293 9.86006 3.55943 8.93233 4.4209 8.43532L17.6412 0.781495C18.4695 0.317627 19.596 0.317627 20.4244 0.781495L33.6446 8.43532C34.5061 8.93233 35.0362 9.86006 35.0362 10.8541V26.1286C35.0362 27.1226 34.5061 28.0503 33.6446 28.5473L20.4244 36.2012C19.9936 36.4 19.4966 36.4994 19.0328 36.4994ZM23.1082 25.9961C17.3098 25.9961 16.117 23.3454 16.117 21.0923C16.117 20.8935 16.2827 20.6947 16.5146 20.6947H18.2376C18.4364 20.6947 18.602 20.8272 18.602 21.026C18.8671 22.7821 19.6292 23.6436 23.1413 23.6436C25.9245 23.6436 27.1173 23.014 27.1173 21.523C27.1173 20.6616 26.786 20.032 22.4455 19.6013C18.834 19.2368 16.5809 18.4416 16.5809 15.559C16.5809 12.8752 18.834 11.2848 22.6112 11.2848C26.8523 11.2848 28.9397 12.7427 29.2047 15.9235C29.2047 16.0229 29.1716 16.1223 29.1053 16.2217C29.0391 16.288 28.9397 16.3542 28.8403 16.3542H27.1173C26.9517 16.3542 26.786 16.2217 26.7529 16.056C26.3553 14.2337 25.3281 13.6373 22.6112 13.6373C19.5629 13.6373 19.1984 14.6975 19.1984 15.4927C19.1984 16.4536 19.6292 16.7518 23.7377 17.282C27.8131 17.8121 29.7349 18.5742 29.7349 21.4236C29.7017 24.3394 27.3161 25.9961 23.1082 25.9961Z" fill="currentColor"/>
    </svg> 
