<svg xmlns="http://www.w3.org/2000/svg" width="38" height="37" viewBox="0 0 38 37" fill="none">
        <g clip-path="url(#clip0_142_292)">
            <path fill-rule="evenodd" clip-rule="evenodd" d="M10.2677 4.4844C10.2677 4.4844 9.69629 0.516114 18.847 0.516113C28.4098 0.516113 27.671 5.3005 27.671 5.3005V13.2065C27.671 17.9879 22.8051 17.9092 22.8051 17.9092H14.1442C8.95056 17.9092 9.11498 23.0201 9.11498 23.0201V27.3046H6.0648C6.0648 27.3046 0.953979 27.632 0.953979 18.3989C0.953979 9.16578 6.80949 9.82985 6.80949 9.82985H19.0102V8.5955H10.2779L10.2677 4.4844ZM15.603 4.85164C15.603 3.98285 14.9008 3.28065 14.032 3.28065C13.1632 3.28065 12.461 3.98285 12.461 4.85164C12.461 5.72044 13.1632 6.42264 14.032 6.42264C14.9008 6.42264 15.603 5.72044 15.603 4.85164Z" fill="currentColor"/>
            <path fill-rule="evenodd" clip-rule="evenodd" d="M27.6861 32.406C27.6861 32.406 28.2575 36.3743 19.1069 36.3743C9.54398 36.3743 10.2828 31.5899 10.2828 31.5899V23.6839C10.2828 18.9025 15.1488 18.9811 15.1488 18.9811H23.8096C29.0033 18.9811 28.8388 13.8703 28.8388 13.8703V9.58579H31.889C31.889 9.58579 36.9998 9.25836 36.9998 18.4915C36.9998 27.7246 31.1443 27.0605 31.1443 27.0605H18.9436V28.2949H27.6759L27.6861 32.406ZM22.3509 32.0387C22.3509 32.9075 23.053 33.6097 23.9218 33.6097C24.7906 33.6097 25.4928 32.9075 25.4928 32.0387C25.4928 31.1699 24.7906 30.4677 23.9218 30.4677C23.053 30.4677 22.3509 31.1699 22.3509 32.0387Z" fill="currentColor"/>
        </g>
        <defs>
            <clipPath id="clip0_142_292">
                <rect width="37" height="37" fill="white" transform="translate(0.5)"/>
            </clipPath>
        </defs>
    </svg> 
