<svg xmlns="http://www.w3.org/2000/svg" width="38" height="37" viewBox="0 0 38 37" fill="none">
        <g opacity="0.7" clip-path="url(#clip0_129_899)">
            <path d="M30.9214 12.6933C30.5376 12.5611 30.1399 12.4361 29.7304 12.3179C29.7977 12.0432 29.8594 11.7721 29.9144 11.5055C30.816 7.12899 30.2265 3.6032 28.2135 2.44236C26.2833 1.32927 23.1266 2.48985 19.9384 5.26437C19.6319 5.53117 19.3244 5.81364 19.0171 6.10968C18.8124 5.91381 18.6079 5.72453 18.404 5.54349C15.0628 2.57678 11.7137 1.32657 9.70268 2.49077C7.77431 3.60709 7.20325 6.92166 8.01483 11.0694C8.09321 11.47 8.18482 11.8791 8.28841 12.2951C7.81442 12.4296 7.35683 12.5731 6.919 12.7257C3.00174 14.0914 0.5 16.2318 0.5 18.452C0.5 20.745 3.18562 23.045 7.26575 24.4396C7.58773 24.5496 7.92184 24.6537 8.26615 24.7525C8.15439 25.2024 8.05718 25.6432 7.97558 26.0732C7.20173 30.1489 7.80606 33.3852 9.72929 34.4945C11.7158 35.64 15.0497 34.4625 18.2962 31.6248C18.5527 31.4005 18.8103 31.1626 19.0682 30.9132C19.4026 31.2352 19.7364 31.5399 20.0685 31.8258C23.213 34.5317 26.3188 35.6244 28.2402 34.5121C30.2248 33.3632 30.8697 29.8867 30.0324 25.6569C29.9684 25.3339 29.894 25.0038 29.8104 24.668C30.0446 24.5987 30.2744 24.5273 30.4985 24.453C34.7402 23.0476 37.5 20.7757 37.5 18.452C37.5 16.2238 34.9176 14.0689 30.9214 12.6933ZM30.0014 22.9527C29.7991 23.0196 29.5915 23.0844 29.38 23.1471C28.9117 21.6647 28.2797 20.0884 27.5063 18.4597C28.2444 16.8699 28.8519 15.3137 29.3071 13.8409C29.6856 13.9504 30.0529 14.0659 30.4069 14.1878C33.8308 15.3665 35.9194 17.1092 35.9194 18.452C35.9194 19.8824 33.6638 21.7391 30.0014 22.9527ZM28.4818 25.9639C28.8521 27.8342 28.9049 29.5252 28.6597 30.8472C28.4393 32.035 27.9961 32.827 27.4482 33.1441C26.2822 33.8191 23.7886 32.9418 21.0993 30.6276C20.791 30.3623 20.4805 30.0791 20.169 29.7793C21.2116 28.639 22.2535 27.3135 23.2705 25.8413C25.0591 25.6826 26.749 25.4231 28.2815 25.0689C28.357 25.3733 28.424 25.6719 28.4818 25.9639ZM13.1141 33.0275C11.9749 33.4298 11.0676 33.4414 10.5191 33.1251C9.35198 32.452 8.86679 29.8535 9.52861 26.368C9.60442 25.9688 9.69464 25.5588 9.79864 25.1397C11.3143 25.4748 12.9918 25.716 14.7848 25.8613C15.8086 27.3019 16.8806 28.626 17.961 29.7854C17.725 30.0133 17.4898 30.2302 17.256 30.4346C15.8205 31.6894 14.3819 32.5797 13.1141 33.0275ZM7.77695 22.9439C5.97279 22.3273 4.48285 21.5258 3.46157 20.6513C2.54388 19.8654 2.08056 19.0851 2.08056 18.452C2.08056 17.1047 4.08921 15.3863 7.43929 14.2182C7.84577 14.0765 8.27129 13.9429 8.71288 13.8175C9.17587 15.3236 9.78323 16.8982 10.5162 18.4905C9.77374 20.1064 9.15776 21.7061 8.69022 23.2299C8.37541 23.1394 8.07042 23.0441 7.77695 22.9439ZM9.56602 10.7658C8.87068 7.21217 9.33248 4.53142 10.4946 3.85873C11.7324 3.14212 14.4696 4.16386 17.3545 6.72547C17.5389 6.88919 17.724 7.06056 17.9097 7.23785C16.8347 8.39217 15.7724 9.70633 14.7577 11.1384C13.0176 11.2997 11.3519 11.5588 9.82037 11.9057C9.72408 11.5184 9.6388 11.1379 9.56602 10.7658ZM25.5261 14.7068C25.16 14.0744 24.7842 13.457 24.401 12.8564C25.5815 13.0056 26.7126 13.2037 27.7748 13.4462C27.4559 14.4682 27.0584 15.5367 26.5906 16.6322C26.2549 15.995 25.9 15.3525 25.5261 14.7068ZM19.0176 8.36748C19.7467 9.15733 20.4768 10.0392 21.195 10.996C20.4713 10.9618 19.7387 10.944 19 10.944C18.2683 10.944 17.5411 10.9614 16.8219 10.995C17.5408 10.0471 18.2772 9.16642 19.0176 8.36748ZM12.4675 14.7177C12.1017 15.3519 11.7533 15.9908 11.423 16.631C10.9627 15.5394 10.5689 14.4659 10.2473 13.4294C11.3029 13.1932 12.4287 13 13.6017 12.8536C13.2131 13.4597 12.8342 14.0817 12.4675 14.7176V14.7177ZM13.6355 24.1632C12.4235 24.0279 11.2809 23.8447 10.2255 23.615C10.5523 22.56 10.9547 21.4636 11.4248 20.3485C11.756 20.9882 12.1058 21.6274 12.4737 22.263H12.4738C12.8486 22.9104 13.2369 23.5447 13.6355 24.1632ZM19.0614 28.648C18.3122 27.8397 17.565 26.9456 16.8352 25.9838C17.5436 26.0116 18.2659 26.0259 19 26.0259C19.7542 26.0259 20.4997 26.0089 21.2335 25.9762C20.513 26.9553 19.7855 27.8508 19.0614 28.648ZM26.6057 20.2917C27.1002 21.4189 27.5171 22.5095 27.8481 23.5465C26.7753 23.7912 25.617 23.9884 24.3967 24.1348C24.7808 23.5262 25.1599 22.8981 25.5325 22.2521C25.9094 21.5985 26.2673 20.9439 26.6057 20.2917ZM24.1633 21.4625C23.5849 22.4653 22.9912 23.4226 22.3883 24.3263C21.2904 24.4048 20.1561 24.4452 19 24.4452C17.8486 24.4452 16.7286 24.4095 15.6501 24.3395C15.0229 23.4239 14.4162 22.4638 13.8416 21.4711H13.8417C13.2685 20.4811 12.741 19.4827 12.263 18.49C12.7408 17.4949 13.267 16.4954 13.8369 15.5072L13.8367 15.5074C14.4081 14.5165 15.0095 13.561 15.6308 12.6512C16.7312 12.5681 17.8596 12.5247 18.9999 12.5247H19C20.1455 12.5247 21.2753 12.5684 22.3754 12.6523C22.9872 13.5554 23.5845 14.5078 24.1581 15.4988C24.7383 16.5009 25.2712 17.4938 25.7532 18.4675C25.2727 19.458 24.7409 20.4608 24.1633 21.4625ZM27.424 3.81171C28.663 4.52622 29.1448 7.40784 28.3663 11.1865C28.3167 11.4276 28.2608 11.6732 28.2 11.9221C26.665 11.5679 24.9981 11.3043 23.2529 11.1406C22.2362 9.69283 21.1826 8.37663 20.1251 7.23713C20.4095 6.96361 20.6934 6.70281 20.9761 6.45669C23.7077 4.0795 26.2607 3.14093 27.424 3.81171ZM19 15.148C20.8247 15.148 22.304 16.6272 22.304 18.452C22.304 20.2767 20.8247 21.756 19 21.756C17.1753 21.756 15.696 20.2767 15.696 18.452C15.696 16.6272 17.1753 15.148 19 15.148Z" fill="currentColor"/>
        </g>
        <defs>
            <clipPath id="clip0_129_899">
                <rect width="37" height="37" fill="white" transform="translate(0.5)"/>
            </clipPath>
        </defs>
    </svg> 
