<svg xmlns="http://www.w3.org/2000/svg" width="51" height="42" viewBox="0 0 51 42" fill="none">
  <g clip-path="url(#clip0_128_320)">
    <path d="M0.5 0.0229492H15.9891V8.23331H13.6341V14.1881H22.1486V8.23331H19.8397V0.0229492H35.2826V8.23331H32.837V14.1881H44.7935V22.3984H42.3478V33.7666H44.7935V41.977H29.3949V33.8568H31.6594V32.323H23.3261V33.8568H25.6812V41.977H10.192V33.8568H12.6377V27.2705H7.6558L2.99094 23.03V8.23331H0.5V0.0229492Z" fill="currentColor"/>
    <path d="M1.67749 1.1958H14.8115V7.06034H12.4565V15.3609H23.326V7.06034H21.0163V1.1958H34.1503V7.06034H31.6594V15.3609H43.6159V21.2706H41.1702V34.9846H43.6612V40.8491H30.5271V34.9846H32.8369V31.1501H22.1485V34.9846H24.5036V40.8491H11.3242V34.9846H13.8152V25.9622H8.01807L4.16843 22.669V7.06034H1.67749V1.1958Z" fill="currentColor"/>
    <path d="M2.7644 2.27832H13.7246V5.97749H11.3695V21.2253H13.8604V25.0147H8.65209L5.30064 22.1275V5.97749H2.7644V2.27832ZM22.1485 2.27832H33.018V5.97749H30.5724V22.1275L27.1303 25.0147H22.0579V21.2253H24.413V5.97749H22.1485V2.27832ZM31.6593 16.5337H42.5289V20.1426H40.0832V36.1122H42.5289V39.7212H31.6593V36.1122H34.0144V30.0672H21.0615V36.1122H23.326V39.7212H12.4564V36.1122H14.9927V20.1426H12.4564V16.4886H23.3713V20.1426H21.0615V26.0974H33.9691V20.1877H31.6593V16.5337ZM29.2137 24.9245L32.7463 21.7666V24.9245H29.2137Z" fill="currentColor"/>
    <path d="M46.3333 40.1724H47.8731V40.6009H47.3523V41.9768H46.8541V40.6009H46.3333V40.1724ZM48.1448 40.1724H48.951L49.2961 41.0096L49.6919 40.1724H50.4773V41.9768H49.9791V40.6009L49.4891 41.6024L49.1068 41.578L48.6276 40.5423V41.9768H48.1448V40.1724Z" fill="currentColor"/>
  </g>
  <defs>
    <clipPath id="clip0_128_320">
      <rect width="50" height="41.954" fill="white" transform="translate(0.5 0.0229492)"/>
    </clipPath>
  </defs>
</svg>
