    <svg xmlns="http://www.w3.org/2000/svg" width="38" height="37" viewBox="0 0 38 37" fill="none">
        <g clip-path="url(#clip0_142_266)">
            <path fill-rule="evenodd" clip-rule="evenodd" d="M36.0742 4.02873L28.4802 0.372364C28.0969 0.187798 27.681 0.117672 27.2766 0.154487C26.745 0.197403 26.2318 0.424852 25.8368 0.81985C25.9132 0.743423 25.9945 0.678736 26.0792 0.625166C26.0031 0.684058 25.9302 0.748202 25.8609 0.817507L11.3257 14.0702L4.99444 9.26721C4.40508 8.82009 3.5807 8.85673 3.0333 9.35436L1.00266 11.2004C0.333107 11.8091 0.332338 12.8618 1.00101 13.4715L6.49168 18.4777L1.00101 23.4839C0.332338 24.0936 0.333107 25.1463 1.00266 25.755L3.0333 27.601C3.5807 28.0987 4.40508 28.1353 4.99444 27.6882L11.3257 22.8852L25.8609 36.1379C25.9398 36.2169 26.0236 36.2891 26.1112 36.3546C26.015 36.2974 25.9228 36.2263 25.8368 36.1403C26.3442 36.6478 27.0468 36.8786 27.7328 36.7969C27.9875 36.7693 28.2403 36.6986 28.4802 36.5831L36.0742 32.9267C36.8715 32.5427 37.3784 31.7361 37.3784 30.8512V30.763C37.3784 30.8827 37.3654 30.9975 37.341 31.1066C37.3498 31.0249 37.3543 30.9423 37.3543 30.8589V6.10129C37.3543 6.01473 37.3494 5.92892 37.3399 5.84419C37.365 5.95464 37.3784 6.07097 37.3784 6.19235V6.10419C37.3784 5.21928 36.8715 4.41261 36.0742 4.02873ZM28.1403 10.1293L17.1355 18.4777L28.1403 26.8261V10.1293Z" fill="currentColor"/>
        </g>
        <defs>
            <clipPath id="clip0_142_266">
                <rect width="37" height="36.7109" fill="white" transform="translate(0.5 0.144531)"/>
            </clipPath>
        </defs>
        </svg> 
