            <svg xmlns="http://www.w3.org/2000/svg" width="26" height="26" viewBox="0 0 26 26" fill="none">
                <path d="M10.6875 4.6665V6.104C9.82292 5.76025 8.89583 5.58317 7.96875 5.58317C6.10417 5.58317 4.23958 6.2915 2.8125 7.71859L6.28125 11.1873H7.4375V12.3436C8.33333 13.2394 9.5 13.7082 10.6771 13.7603V16.1248H7.5625V19.2498C7.5625 20.3957 8.5 21.3332 9.64583 21.3332H20.0625C21.7917 21.3332 23.1875 19.9373 23.1875 18.2082V4.6665H10.6875ZM9.53125 11.3436V9.104H7.15625L6.07292 8.02067C6.66667 7.7915 7.3125 7.6665 7.96875 7.6665C9.36458 7.6665 10.6667 8.20817 11.6562 9.18734L13.125 10.6561L12.9167 10.8644C12.3854 11.3957 11.6771 11.6978 10.9167 11.6978C10.4271 11.6978 9.94792 11.5728 9.53125 11.3436ZM21.1042 18.2082C21.1042 18.7811 20.6354 19.2498 20.0625 19.2498C19.4896 19.2498 19.0208 18.7811 19.0208 18.2082V16.1248H12.7708V13.4269C13.3646 13.1873 13.9167 12.8332 14.3958 12.354L14.6042 12.1457L17.5521 15.0832H19.0208V13.6144L12.7708 7.39567V6.74984H21.1042V18.2082Z" fill="currentColor"/>
            </svg>
 
