<svg xmlns="http://www.w3.org/2000/svg">
  <g clip-path="url(#clip0_128_648)">
    <path fill-rule="evenodd" clip-rule="evenodd" d="M2.31951 0H6.95097L15.3869 8.10507H16.2139V7.60884H28.4543V8.10507H29.1158L37.7171 0H42.1832L44.1681 2.64655V10.09L41.0253 16.7063V21.9995L39.7021 24.6461V30.7662L33.4165 39.8638V43.0064L27.958 47.3071L26.1384 49.9537H18.5297L16.7102 47.3071L11.2516 43.0064V39.8638L4.96606 30.7662V24.6461L3.64278 21.9995V16.7063L0.5 10.09V2.64655L2.31951 0ZM27.6272 31.4278V24.1498L32.0932 21.1724L35.0706 23.4882V26.1347L27.6272 31.4278ZM12.5749 21.1724L9.59752 23.4882V26.1347L17.0409 31.4278V24.1498L12.5749 21.1724ZM21.507 43.1719L18.1988 40.3599H26.4693L23.1611 43.1719V45.3223H21.507V43.1719Z" fill="currentColor"/>
  </g>
  <defs>
    <clipPath id="clip0_128_648">
      <rect width="43.6681" height="50" fill="white" transform="translate(0.5)"/>
    </clipPath>
  </defs>
</svg>
